<svg width="1920" height="1080" viewBox="0 0 1920 1080" xmlns="http://www.w3.org/2000/svg"><path d="M 0,1080 C 0,1080 0,180 0,180 C 60.933814494828795,179.2110523747549 121.86762898965759,178.4221047495098 163,193 C 204.1323710103424,207.5778952504902 225.46329853619835,237.52263337671565 278,232 C 330.53670146380165,226.47736662328435 414.27917686554883,185.48736174362767 465,157 C 515.7208231344512,128.51263825637233 533.419994001606,112.52791964877373 580,116 C 626.580005998394,119.47208035122627 702.040847128027,142.40095966127743 751,171 C 799.959152871973,199.59904033872257 822.4166174862859,233.86824170611655 871,229 C 919.5833825137141,224.13175829388345 994.2926829268292,180.12607351425626 1044,183 C 1093.7073170731708,185.87392648574374 1118.4126508063969,235.62746423685834 1155,235 C 1191.5873491936031,234.37253576314166 1240.0567138475826,183.36406953831036 1301,167 C 1361.9432861524174,150.63593046168964 1435.360493803272,168.91625760990024 1496,179 C 1556.639506196728,189.08374239009976 1604.5013109393292,190.97090002208856 1645,193 C 1685.4986890606708,195.02909997791144 1718.6342624394115,197.20014230174542 1773,193 C 1827.3657375605885,188.79985769825458 1902.9616393030255,178.2285307709299 1931,175 C 1959.0383606969745,171.7714692290701 1939.5191803484872,175.88573461453507 1920,180 C 1920,180 1920,1080 1920,1080 Z" fill="#3b0bea" opacity="0.09999999999999999"/><path d="M 0,1080 C 0,1080 0,360 0,360 C 46.206179531304954,347.83644497182104 92.41235906260991,335.6728899436421 144,339 C 195.5876409373901,342.3271100563579 252.55674328086536,361.14488519725273 307,359 C 361.44325671913464,356.85511480274727 413.3606678139288,333.747569267347 464,344 C 514.6393321860712,354.252430732653 564.0005854634196,397.86483773335925 609,395 C 653.9994145365804,392.13516226664075 694.6369903323931,342.79307979921595 743,343 C 791.3630096676069,343.20692020078405 847.4514532070081,392.96284306977685 894,384 C 940.5485467929919,375.03715693022315 977.5571968395743,307.3555479216765 1024,309 C 1070.4428031604257,310.6444520783235 1126.3197594346957,381.61496524351753 1174,405 C 1221.6802405653043,428.38503475648247 1261.1637654216433,404.1845911042536 1311,401 C 1360.8362345783567,397.8154088957464 1421.0251788787311,415.6466703394679 1471,406 C 1520.9748211212689,396.3533296605321 1560.735519063433,359.2287275378746 1604,353 C 1647.264480936567,346.7712724621254 1694.032744867537,371.4384195090338 1760,378 C 1825.967255132463,384.5615804909662 1911.1335014664178,373.0175944259903 1941,367 C 1970.8664985335822,360.9824055740097 1945.433249266791,360.49120278700485 1920,360 C 1920,360 1920,1080 1920,1080 Z" fill="#3b0bea" opacity="0.19999999999999998"/><path d="M 0,1080 C 0,1080 0,540 0,540 C 39.46800813394215,514.3535487068365 78.9360162678843,488.70709741367295 134,502 C 189.0639837321157,515.292902586327 259.723943062405,567.5251590521448 309,571 C 358.276056937595,574.4748409478552 386.1682114824958,529.1922663777482 431,511 C 475.8317885175042,492.8077336222519 537.6032110076117,501.7057754368627 592,493 C 646.3967889923883,484.2942245631373 693.4189444870576,457.98463187480064 734,478 C 774.5810555129424,498.01536812519936 808.7210110441579,564.3556970639346 863,587 C 917.2789889558421,609.6443029360654 991.6970113363107,588.5925798694607 1052,581 C 1112.3029886636893,573.4074201305393 1158.4909436105997,579.2739834582227 1196,568 C 1233.5090563894003,556.7260165417773 1262.33921422129,528.3114862976487 1312,521 C 1361.66078577871,513.6885137023513 1432.15219950424,527.4800713511826 1484,554 C 1535.84780049576,580.5199286488174 1569.0519877617503,619.7682282976212 1616,606 C 1662.9480122382497,592.2317717023788 1723.6398494487594,525.4470154583328 1783,510 C 1842.3601505512406,494.55298454166723 1900.3886144432117,530.4437098690478 1923,544 C 1945.6113855567883,557.5562901309522 1932.8056927783941,548.7781450654761 1920,540 C 1920,540 1920,1080 1920,1080 Z" fill="#3b0bea" opacity="0.3"/><path d="M 0,1080 C 0,1080 0,720 0,720 C 46.32054043867309,760.1005295810621 92.64108087734618,800.2010591621244 146,784 C 199.35891912265382,767.7989408378756 259.75621692928837,695.2962929325647 309,671 C 358.24378307071163,646.7037070674353 396.33405140550053,670.6137691076169 433,702 C 469.66594859449947,733.3862308923831 504.9075774487095,772.2486306369676 565,771 C 625.0924225512905,769.7513693630324 710.0356387996617,728.3917083445127 761,706 C 811.9643612003383,683.6082916554873 828.9498673526439,680.1845359849814 868,693 C 907.0501326473561,705.8154640150186 968.1648917897628,734.8701477155618 1026,722 C 1083.8351082102372,709.1298522844382 1138.3905654883042,654.3348731527718 1186,657 C 1233.6094345116958,659.6651268472282 1274.2728462570199,719.7903596733506 1317,736 C 1359.7271537429801,752.2096403266494 1404.5180494836163,724.503688153826 1453,699 C 1501.4819505163837,673.496311846174 1553.6549558085153,650.1948877113457 1600,657 C 1646.3450441914847,663.8051122886543 1686.862127282323,700.7167610007915 1746,726 C 1805.137872717677,751.2832389992085 1882.8965350621934,764.9380682854882 1915,762 C 1947.1034649378066,759.0619317145118 1933.5517324689033,739.530965857256 1920,720 C 1920,720 1920,1080 1920,1080 Z" fill="#3b0bea" opacity="0.39999999999999997"/><path d="M 0,1080 C 0,1080 0,900 0,900 C 51.16454049808473,917.3033321882515 102.32908099616947,934.6066643765029 144,930 C 185.67091900383053,925.3933356234971 217.8482165134069,898.8766746822398 271,901 C 324.1517834865931,903.1233253177602 398.2780529502028,933.886636894538 462,921 C 525.7219470497972,908.113363105462 579.0395716857818,851.5767777396085 615,840 C 650.9604283142182,828.4232222603915 669.5636603066703,861.8062521470285 713,881 C 756.4363396933297,900.1937478529715 824.7057870875371,905.1982136722776 889,892 C 953.2942129124629,878.8017863277224 1013.6131913431811,847.4008931638613 1058,864 C 1102.3868086568189,880.5991068361387 1130.8414475397387,945.1982136722773 1166,956 C 1201.1585524602613,966.8017863277227 1243.0210184978644,923.8062521470287 1302,911 C 1360.9789815021356,898.1937478529713 1437.0744784688045,915.5767777396082 1497,928 C 1556.9255215311955,940.4232222603918 1600.681067626918,947.886636894538 1646,949 C 1691.318932373082,950.113363105462 1738.2012510235224,944.8766746822397 1796,927 C 1853.7987489764776,909.1233253177603 1922.5139282789935,878.606664376503 1945,872 C 1967.4860717210065,865.393335623497 1943.7430358605034,882.6966678117485 1920,900 C 1920,900 1920,1080 1920,1080 Z" fill="#3b0bea" opacity="0.49999999999999994"/></svg>